# xmcd
#
# Track frame offsets:
#   150
#   20056
#   41259
#   57907
#   80519
#   119421
#   142544
#   164139
#   184213
#   197881
#   230267
#   258917
#   277916
#
# Disc length: 4100 seconds
#
# Revision: 0
# Processed by: cddbd v1.5.1PL2 Copyright (c) Steve Scherf et al.
# Submitted via: uFREEDB 1.6.0
#
DISCID=af10020d
DTITLE=Eric Clapton and B.B. King - Riding With The King
DYEAR=2000
DGENRE=Blues
TTITLE0=Riding With The King
TTITLE1=Ten Long Years
TTITLE2=Key To The Highway
TTITLE3=Marry You
TTITLE4=Three O' Clock Blues
TTITLE5=Help The Poor
TTITLE6=I Wanna Be
TTITLE7=Worried Life Blues
TTITLE8=Days Of Old
TTITLE9=When My Heart Beats Like A Hammer
TTITLE10=Hold On I'm Coming
TTITLE11=Come Rain Or Come Shine
TTITLE12=(bonus track)
EXTD=
EXTT0=
EXTT1=
EXTT2=
EXTT3=
EXTT4=
EXTT5=
EXTT6=
EXTT7=
EXTT8=
EXTT9=
EXTT10=
EXTT11=
EXTT12=
PLAYORDER=
